<svg display="none" xmlns="http://www.w3.org/2000/svg">

    <symbol id="sun-icon" viewBox="0 0 20 20">
        <path fill-rule="evenodd" clip-rule="evenodd" d="M9.60053 3.72147H10.3996C10.6518 3.72147 10.8562 3.51704 10.8562 3.26485V0.456622C10.8562 0.20443 10.6518 0 10.3996 0H9.60053C9.34834 0 9.14391 0.20443 9.14391 0.456622V3.26485C9.14391 3.51704 9.34834 3.72147 9.60053 3.72147ZM10.0001 15.6165C13.102 15.6165 15.6165 13.102 15.6165 10.0001C15.6165 6.89821 13.102 4.38364 10.0001 4.38364C6.89821 4.38364 4.38364 6.89821 4.38364 10.0001C4.38364 13.102 6.89821 15.6165 10.0001 15.6165ZM16.2785 10.3996V9.60053C16.2785 9.34834 16.483 9.14391 16.7352 9.14391H19.5434C19.7956 9.14391 20 9.34834 20 9.60053V10.3996C20 10.6518 19.7956 10.8562 19.5434 10.8562H16.7352C16.483 10.8562 16.2785 10.6518 16.2785 10.3996ZM10.3996 20C10.6518 20 10.8562 19.7956 10.8562 19.5434V16.7352C10.8562 16.483 10.6518 16.2785 10.3996 16.2785H9.60053C9.34834 16.2785 9.14391 16.483 9.14391 16.7352V19.5434C9.14391 19.7956 9.34834 20 9.60053 20H10.3996ZM3.26485 10.8562H0.456622C0.20443 10.8562 0 10.6518 0 10.3996V9.60053C0 9.34834 0.20443 9.14391 0.456622 9.14391H3.26485C3.51704 9.14391 3.72147 9.34834 3.72147 9.60053V10.3996C3.72147 10.6518 3.51704 10.8562 3.26485 10.8562ZM14.722 5.84297C14.9003 6.02129 15.1894 6.02131 15.3677 5.84297L17.3535 3.85726C17.5318 3.6789 17.5318 3.38981 17.3535 3.2115L16.7884 2.64645C16.6101 2.46812 16.321 2.46812 16.1427 2.64645L14.1569 4.63217C13.9786 4.81048 13.9786 5.09961 14.1569 5.27793L14.722 5.84297ZM17.3538 16.7887L16.7888 17.3538C16.6104 17.5321 16.3213 17.5321 16.143 17.3538L14.1572 15.368C13.9789 15.1897 13.9789 14.9006 14.1572 14.7223L14.7223 14.1572C14.9006 13.9789 15.1897 13.9789 15.3681 14.1572L17.3538 16.1429C17.5321 16.3213 17.5321 16.6104 17.3538 16.7887ZM3.85726 17.3538L5.843 15.368C6.02135 15.1897 6.02135 14.9006 5.843 14.7223L5.27795 14.1572C5.09961 13.9789 4.8105 13.9789 4.63219 14.1572L2.64645 16.1429C2.46812 16.3213 2.46812 16.6104 2.64645 16.7887L3.2115 17.3538C3.38981 17.5321 3.67892 17.5321 3.85726 17.3538ZM5.27794 5.84297C5.09963 6.02129 4.81052 6.02131 4.63219 5.84297L2.64645 3.85726C2.46812 3.67895 2.46812 3.38981 2.64645 3.2115L3.2115 2.64645C3.38981 2.46812 3.67892 2.46812 3.85726 2.64645L5.84299 4.63217C6.02135 4.81048 6.02135 5.09961 5.84299 5.27793L5.27794 5.84297Z"/>
    </symbol>

    <symbol id="quote-icon" viewBox="0 0 102 84">
        <path d="M68.6832 45.1953C68.198 43.4828 67.9516 41.5149 67.9516 39.2857C67.9516 33.2091 70.2619 27.2093 74.9378 21.278C79.8355 15.3381 85.5761 10.9984 92.1605 8.24707L92.655 8.04045L92.4146 7.56148L89.5114 1.77575L89.2947 1.34382L88.8556 1.54574C77.6047 6.71993 69.1369 13.6332 63.4845 22.2983L63.4844 22.2982L63.4797 22.3058C58.0504 30.9616 55.3387 40.6975 55.3387 51.5C55.3387 59.9307 57.1833 67.0997 60.8999 72.9814C65.2964 79.9897 71.8038 83.5 80.3549 83.5C86.2844 83.5 91.2529 81.5253 95.2239 77.5685C99.4044 73.4029 101.5 68.3468 101.5 62.4286C101.5 56.0983 99.4146 51.0291 95.2141 47.279C91.2448 43.3286 86.2796 41.3571 80.3549 41.3571C75.9772 41.3571 72.081 42.6371 68.6832 45.1953ZM13.8445 45.1953C13.3593 43.4828 13.1129 41.5149 13.1129 39.2857C13.1129 33.2091 15.4232 27.2094 20.0989 21.2782C24.9967 15.3381 30.7374 10.9984 37.3218 8.24707L37.8163 8.04045L37.5759 7.56148L34.6727 1.77575L34.456 1.34382L34.0169 1.54574C22.766 6.71993 14.2982 13.6332 8.64574 22.2983L8.64568 22.2982L8.64095 22.3058C3.21167 30.9616 0.5 40.6975 0.5 51.5C0.5 59.9306 2.34459 67.0996 6.0611 72.9812C10.4576 79.9896 16.965 83.5 25.5161 83.5C31.4457 83.5 36.4142 81.5253 40.3852 77.5685C44.5657 73.4029 46.6613 68.3468 46.6613 62.4286C46.6613 56.0983 44.5758 51.0291 40.3754 47.2789C36.406 43.3286 31.4408 41.3571 25.5161 41.3571C21.1385 41.3571 17.2423 42.6371 13.8445 45.1953Z"/>
    </symbol>

    <symbol id="vector-B" viewBox="0 0 18 18">
        <path fill-rule="evenodd" clip-rule="evenodd" d="M9 18C4.02919 18 0 13.9708 0 9C0 4.02919 4.02919 0 9 0C13.9708 0 18 4.02919 18 9C18 13.9708 13.9708 18 9 18ZM13.0438 7.88625C13.2204 6.70725 12.3221 6.07331 11.0948 5.65031L11.493 4.05281L10.521 3.81094L10.1329 5.36625C9.8775 5.30212 9.61537 5.2425 9.35381 5.18287L9.74475 3.61744L8.77275 3.375L8.3745 4.97194C8.163 4.92356 7.95487 4.87631 7.7535 4.82569L7.75463 4.82062L6.41363 4.48594L6.15488 5.52431C6.15488 5.52431 6.87656 5.68969 6.86137 5.69981C7.25513 5.79825 7.326 6.05869 7.31419 6.26569L6.86081 8.08537C6.88781 8.09212 6.92269 8.10225 6.96206 8.11744L6.85913 8.09212L6.2235 10.6414C6.17513 10.7606 6.05306 10.9401 5.77744 10.872C5.78756 10.8861 5.07094 10.6959 5.07094 10.6959L4.58831 11.8086L5.85394 12.1241C6.08906 12.1832 6.31969 12.2451 6.54637 12.303L6.14419 13.9185L7.11562 14.1604L7.51388 12.5629C7.77938 12.6343 8.037 12.7007 8.289 12.7637L7.89187 14.3544L8.86388 14.5963L9.26606 12.9842C10.9243 13.2981 12.1708 13.1715 12.6956 11.6719C13.1186 10.4648 12.6748 9.76781 11.8024 9.31388C12.438 9.16763 12.9161 8.74969 13.0438 7.88625ZM10.8219 11.0014C10.5221 12.2091 8.48869 11.556 7.82944 11.3923L8.36381 9.252C9.02306 9.41681 11.1364 9.7425 10.8219 11.0014ZM11.1229 7.86881C10.8489 8.96737 9.15694 8.40881 8.6085 8.27213L9.09225 6.3315C9.64069 6.46819 11.4086 6.723 11.1229 7.86881Z"/>
    </symbol>

    <symbol id="arrow-right" viewBox="0 0 16 16">
        <path fill-rule="evenodd" clip-rule="evenodd" d="M10.5858 8.99995H2V6.99995H10.5858L7.29289 3.70706L8.70711 2.29285L14.4142 7.99995L8.70711 13.7071L7.29289 12.2928L10.5858 8.99995Z"/>
    </symbol>

    <symbol id="vector-T" viewBox="0 0 18 18">
        <path fill-rule="evenodd" clip-rule="evenodd" d="M9 18C4.02919 18 0 13.9708 0 9C0 4.02919 4.02919 0 9 0C13.9708 0 18 4.02919 18 9C18 13.9708 13.9708 18 9 18ZM10.0811 7.75856V6.42769H13.1265V4.39819H4.83469V6.42769H7.88006V7.758C5.40506 7.87162 3.54375 8.36212 3.54375 8.94938C3.54375 9.53662 5.40506 10.0266 7.88006 10.1407V14.4056H10.0811V10.1396C12.5522 10.026 14.409 9.53606 14.409 8.94938C14.409 8.36269 12.5522 7.87275 10.0811 7.75856ZM10.0811 9.77794V9.77681C10.0193 9.78131 9.70031 9.80044 8.98875 9.80044C8.42062 9.80044 8.02069 9.78356 7.88006 9.77681V9.7785C5.69306 9.68231 4.06069 9.3015 4.06069 8.84587C4.06069 8.39081 5.69306 8.01 7.88006 7.91213V9.39937C8.02294 9.4095 8.43244 9.43369 8.99831 9.43369C9.67725 9.43369 10.0176 9.40556 10.0811 9.39994V7.91325C12.2636 8.01056 13.8921 8.39137 13.8921 8.84587C13.8921 9.3015 12.2636 9.68119 10.0811 9.77794Z"/>
    </symbol>

    <symbol id="arrow1" viewBox="0 0 48 12">
        <path opacity="0.1" fill-rule="evenodd" clip-rule="evenodd" d="M10 11.7734L0 5.99993L10 0.226432V4.99993L48 4.99993V6.99993L10 6.99993V11.7734Z"/>
    </symbol>

    <symbol id="arrow2" viewBox="0 0 48 12">
        <path fill-rule="evenodd" clip-rule="evenodd" d="M38 0.226569L48 6.00007L38 11.7736L38 7.00007L-1.18432e-06 7.00007L-8.34626e-07 5.00007L38 5.00007L38 0.226569Z"/>
    </symbol>

    <symbol id="icon-play" viewBox="0 0 120 120">
        <circle opacity="0.3" cx="60" cy="60" r="60"/>
        <path d="M81.3175 58.615C82.0301 58.9898 82.0301 60.0102 81.3175 60.385L50.7155 76.4826C50.0496 76.8329 49.25 76.35 49.25 75.5976L49.25 43.4024C49.25 42.65 50.0496 42.1671 50.7155 42.5174L81.3175 58.615Z"/>
    </symbol>

</svg>